<mxfile host="app.diagrams.net" agent="Mozilla/5.0 (Windows NT 10.0; Win64; x64) AppleWebKit/537.36 (KHTML, like Gecko) Chrome/137.0.0.0 Safari/537.36" version="27.0.5">
  <diagram id="C5RBs43oDa-KdzZeNtuy" name="Page-1">
    <mxGraphModel dx="1025" dy="451" grid="1" gridSize="10" guides="1" tooltips="1" connect="1" arrows="1" fold="1" page="1" pageScale="1" pageWidth="827" pageHeight="1169" math="0" shadow="0">
      <root>
        <mxCell id="WIyWlLk6GJQsqaUBKTNV-0" />
        <mxCell id="WIyWlLk6GJQsqaUBKTNV-1" parent="WIyWlLk6GJQsqaUBKTNV-0" />
        <mxCell id="SnfXJmrbi_InZHLPA7sB-35" value="" style="rounded=0;whiteSpace=wrap;html=1;" parent="WIyWlLk6GJQsqaUBKTNV-1" vertex="1">
          <mxGeometry x="20" y="100" width="820" height="630" as="geometry" />
        </mxCell>
        <mxCell id="zkfFHV4jXpPFQw0GAbJ--0" value="Cliente" style="swimlane;fontStyle=2;align=center;verticalAlign=top;childLayout=stackLayout;horizontal=1;startSize=26;horizontalStack=0;resizeParent=1;resizeLast=0;collapsible=1;marginBottom=0;rounded=0;shadow=0;strokeWidth=1;fillColor=#ffe6cc;strokeColor=#d79b00;" parent="WIyWlLk6GJQsqaUBKTNV-1" vertex="1">
          <mxGeometry x="40" y="120" width="200" height="240" as="geometry">
            <mxRectangle x="230" y="140" width="160" height="26" as="alternateBounds" />
          </mxGeometry>
        </mxCell>
        <mxCell id="zkfFHV4jXpPFQw0GAbJ--1" value="- idCliente: number&#xa;- nomeCompleto: string&#xa;- email: string&#xa;- senha: string&#xa;- cpf: number&#xa;- celular: string" style="text;align=left;verticalAlign=top;spacingLeft=4;spacingRight=4;overflow=hidden;rotatable=0;points=[[0,0.5],[1,0.5]];portConstraint=eastwest;fillColor=#ffe6cc;strokeColor=#d79b00;" parent="zkfFHV4jXpPFQw0GAbJ--0" vertex="1">
          <mxGeometry y="26" width="200" height="104" as="geometry" />
        </mxCell>
        <mxCell id="SnfXJmrbi_InZHLPA7sB-10" value="+ listarClientes(): Array&lt;Clintes&gt;&#xa;+ cadastrarCliente(cliente: &#xa;Cliente): Boolean&#xa;+ removerCliente(idCliente: &#xa;number): Boolean&#xa;+ atualizarCadastroCliente( cliente:&#xa;Cliente): Boolean&#xa;" style="text;align=left;verticalAlign=top;spacingLeft=4;spacingRight=4;overflow=hidden;rotatable=0;points=[[0,0.5],[1,0.5]];portConstraint=eastwest;fillColor=#ffe6cc;strokeColor=#d79b00;" parent="zkfFHV4jXpPFQw0GAbJ--0" vertex="1">
          <mxGeometry y="130" width="200" height="110" as="geometry" />
        </mxCell>
        <mxCell id="zkfFHV4jXpPFQw0GAbJ--6" value="Sessao" style="swimlane;fontStyle=0;align=center;verticalAlign=top;childLayout=stackLayout;horizontal=1;startSize=26;horizontalStack=0;resizeParent=1;resizeLast=0;collapsible=1;marginBottom=0;rounded=0;shadow=0;strokeWidth=1;fillColor=#ffe6cc;strokeColor=#d79b00;" parent="WIyWlLk6GJQsqaUBKTNV-1" vertex="1">
          <mxGeometry x="610" y="120" width="210" height="240" as="geometry">
            <mxRectangle x="130" y="380" width="160" height="26" as="alternateBounds" />
          </mxGeometry>
        </mxCell>
        <mxCell id="zkfFHV4jXpPFQw0GAbJ--7" value="- idSessao: number&#xa;- idFilme: number&#xa;- idSala: number&#xa;- data_hora_inicio: string&#xa;- data_hora_fim: string&#xa;" style="text;align=left;verticalAlign=top;spacingLeft=4;spacingRight=4;overflow=hidden;rotatable=0;points=[[0,0.5],[1,0.5]];portConstraint=eastwest;fillColor=#ffe6cc;strokeColor=#d79b00;" parent="zkfFHV4jXpPFQw0GAbJ--6" vertex="1">
          <mxGeometry y="26" width="210" height="94" as="geometry" />
        </mxCell>
        <mxCell id="SnfXJmrbi_InZHLPA7sB-12" value="+ listarSessao(): Array&lt;Sessao&gt;&#xa;+ cadastrarSessao(sessao: &#xa;Sessao): Boolean&#xa;+ removerSessao(idSessao: &#xa;number): Boolean&#xa;+ atualizarCadastroSessao( sessao:&#xa;Sessao): Boolean" style="text;align=left;verticalAlign=top;spacingLeft=4;spacingRight=4;overflow=hidden;rotatable=0;points=[[0,0.5],[1,0.5]];portConstraint=eastwest;fillColor=#ffe6cc;strokeColor=#d79b00;" parent="zkfFHV4jXpPFQw0GAbJ--6" vertex="1">
          <mxGeometry y="120" width="210" height="120" as="geometry" />
        </mxCell>
        <mxCell id="zkfFHV4jXpPFQw0GAbJ--17" value="Ingresso" style="swimlane;fontStyle=0;align=center;verticalAlign=top;childLayout=stackLayout;horizontal=1;startSize=26;horizontalStack=0;resizeParent=1;resizeLast=0;collapsible=1;marginBottom=0;rounded=0;shadow=0;strokeWidth=1;fillColor=#ffe6cc;strokeColor=#d79b00;" parent="WIyWlLk6GJQsqaUBKTNV-1" vertex="1">
          <mxGeometry x="310" y="120" width="230" height="230" as="geometry">
            <mxRectangle x="550" y="140" width="160" height="26" as="alternateBounds" />
          </mxGeometry>
        </mxCell>
        <mxCell id="zkfFHV4jXpPFQw0GAbJ--18" value="- idIngresso: number&#xa;- idSessao: number&#xa;- idCliente: number&#xa;- statusIngresso: string&#xa;- precoIngresso: number" style="text;align=left;verticalAlign=top;spacingLeft=4;spacingRight=4;overflow=hidden;rotatable=0;points=[[0,0.5],[1,0.5]];portConstraint=eastwest;fillColor=#ffe6cc;strokeColor=#d79b00;" parent="zkfFHV4jXpPFQw0GAbJ--17" vertex="1">
          <mxGeometry y="26" width="230" height="94" as="geometry" />
        </mxCell>
        <mxCell id="SnfXJmrbi_InZHLPA7sB-11" value="+ listarIngresso(): Array&lt;Ingresso&gt;&#xa;+ cadastrarIngresso( ingresso: &#xa;Ingresso): Boolean&#xa;+ removerIngresso(idIngresso: &#xa;number): Boolean&#xa;+atualizarCadastroIngresso( ingresso: &#xa;Ingresso): Boolean" style="text;align=left;verticalAlign=top;spacingLeft=4;spacingRight=4;overflow=hidden;rotatable=0;points=[[0,0.5],[1,0.5]];portConstraint=eastwest;fillColor=#ffe6cc;strokeColor=#d79b00;" parent="zkfFHV4jXpPFQw0GAbJ--17" vertex="1">
          <mxGeometry y="120" width="230" height="110" as="geometry" />
        </mxCell>
        <mxCell id="A3KnInYdqYqc7GLgi7td-12" value="Sala" style="swimlane;fontStyle=0;align=center;verticalAlign=top;childLayout=stackLayout;horizontal=1;startSize=26;horizontalStack=0;resizeParent=1;resizeLast=0;collapsible=1;marginBottom=0;rounded=0;shadow=0;strokeWidth=1;fillColor=#ffe6cc;strokeColor=#d79b00;" parent="WIyWlLk6GJQsqaUBKTNV-1" vertex="1">
          <mxGeometry x="590" y="450" width="230" height="194" as="geometry">
            <mxRectangle x="340" y="380" width="170" height="26" as="alternateBounds" />
          </mxGeometry>
        </mxCell>
        <mxCell id="A3KnInYdqYqc7GLgi7td-13" value="- idSala: number&#xa;- numeroSala: number&#xa;-tipoSala: string&#xa;-numeroAssento: number&#xa;-fileira: number" style="text;align=left;verticalAlign=top;spacingLeft=4;spacingRight=4;overflow=hidden;rotatable=0;points=[[0,0.5],[1,0.5]];portConstraint=eastwest;fillColor=#ffe6cc;strokeColor=#d79b00;" parent="A3KnInYdqYqc7GLgi7td-12" vertex="1">
          <mxGeometry y="26" width="230" height="84" as="geometry" />
        </mxCell>
        <mxCell id="SnfXJmrbi_InZHLPA7sB-14" value="+ listarSala(): Array&lt;Sala&gt;&#xa;+ cadastrarSala(sala: Sala): Boolean&#xa;+ removerSala(idSala: number): Boolean&#xa;+ atualizarCadastroSala( sala: &#xa;Sala): Boolean" style="text;align=left;verticalAlign=top;spacingLeft=4;spacingRight=4;overflow=hidden;rotatable=0;points=[[0,0.5],[1,0.5]];portConstraint=eastwest;fillColor=#ffe6cc;strokeColor=#d79b00;" parent="A3KnInYdqYqc7GLgi7td-12" vertex="1">
          <mxGeometry y="110" width="230" height="84" as="geometry" />
        </mxCell>
        <mxCell id="A3KnInYdqYqc7GLgi7td-18" value="Filme" style="swimlane;fontStyle=0;align=center;verticalAlign=top;childLayout=stackLayout;horizontal=1;startSize=26;horizontalStack=0;resizeParent=1;resizeLast=0;collapsible=1;marginBottom=0;rounded=0;shadow=0;strokeWidth=1;fillColor=#ffe6cc;strokeColor=#d79b00;" parent="WIyWlLk6GJQsqaUBKTNV-1" vertex="1">
          <mxGeometry x="270" y="450" width="240" height="260" as="geometry">
            <mxRectangle x="550" y="140" width="160" height="26" as="alternateBounds" />
          </mxGeometry>
        </mxCell>
        <mxCell id="A3KnInYdqYqc7GLgi7td-19" value="- idFilme: number&#xa;- titulo: string&#xa;- sinopse: string&#xa;- duracao: string&#xa;- classificacaoEtaria: string&#xa;- genero: string&#xa;- anoLancamento: number&#xa;- posterFilme: string&#xa;- disponibilidade: string" style="text;align=left;verticalAlign=top;spacingLeft=4;spacingRight=4;overflow=hidden;rotatable=0;points=[[0,0.5],[1,0.5]];portConstraint=eastwest;fillColor=#ffe6cc;strokeColor=#d79b00;" parent="A3KnInYdqYqc7GLgi7td-18" vertex="1">
          <mxGeometry y="26" width="240" height="144" as="geometry" />
        </mxCell>
        <mxCell id="SnfXJmrbi_InZHLPA7sB-13" value="+ listarFilme(): Array&lt;Filme&gt;&#xa;+ cadastrarFilme( filme: Filme): Boolean&#xa;+ removerFilme(idFilme: number): Boolean&#xa;+ atualizarCadastroFilme(filme: &#xa;Filme): Boolean" style="text;align=left;verticalAlign=top;spacingLeft=4;spacingRight=4;overflow=hidden;rotatable=0;points=[[0,0.5],[1,0.5]];portConstraint=eastwest;fillColor=#ffe6cc;strokeColor=#d79b00;" parent="A3KnInYdqYqc7GLgi7td-18" vertex="1">
          <mxGeometry y="170" width="240" height="90" as="geometry" />
        </mxCell>
        <mxCell id="SnfXJmrbi_InZHLPA7sB-19" value="" style="endArrow=none;html=1;rounded=0;fontSize=12;startSize=8;endSize=8;curved=1;exitX=1.002;exitY=0.675;exitDx=0;exitDy=0;exitPerimeter=0;entryX=-0.001;entryY=0.742;entryDx=0;entryDy=0;entryPerimeter=0;" parent="WIyWlLk6GJQsqaUBKTNV-1" source="zkfFHV4jXpPFQw0GAbJ--1" target="zkfFHV4jXpPFQw0GAbJ--18" edge="1">
          <mxGeometry width="50" height="50" relative="1" as="geometry">
            <mxPoint x="270" y="240" as="sourcePoint" />
            <mxPoint x="320" y="190" as="targetPoint" />
          </mxGeometry>
        </mxCell>
        <mxCell id="SnfXJmrbi_InZHLPA7sB-20" value="1.n" style="text;strokeColor=none;fillColor=none;align=left;verticalAlign=middle;spacingLeft=4;spacingRight=4;overflow=hidden;points=[[0,0.5],[1,0.5]];portConstraint=eastwest;rotatable=0;whiteSpace=wrap;html=1;" parent="WIyWlLk6GJQsqaUBKTNV-1" vertex="1">
          <mxGeometry x="280" y="210" width="80" height="30" as="geometry" />
        </mxCell>
        <mxCell id="SnfXJmrbi_InZHLPA7sB-21" value="1.1" style="text;strokeColor=none;fillColor=none;align=left;verticalAlign=middle;spacingLeft=4;spacingRight=4;overflow=hidden;points=[[0,0.5],[1,0.5]];portConstraint=eastwest;rotatable=0;whiteSpace=wrap;html=1;" parent="WIyWlLk6GJQsqaUBKTNV-1" vertex="1">
          <mxGeometry x="240" y="190" width="80" height="30" as="geometry" />
        </mxCell>
        <mxCell id="SnfXJmrbi_InZHLPA7sB-22" value="" style="endArrow=none;html=1;rounded=0;fontSize=12;startSize=8;endSize=8;curved=1;entryX=0.004;entryY=0.696;entryDx=0;entryDy=0;entryPerimeter=0;" parent="WIyWlLk6GJQsqaUBKTNV-1" target="zkfFHV4jXpPFQw0GAbJ--7" edge="1">
          <mxGeometry width="50" height="50" relative="1" as="geometry">
            <mxPoint x="540" y="211" as="sourcePoint" />
            <mxPoint x="630" y="190" as="targetPoint" />
          </mxGeometry>
        </mxCell>
        <mxCell id="SnfXJmrbi_InZHLPA7sB-23" value="0.n" style="text;strokeColor=none;fillColor=none;align=left;verticalAlign=middle;spacingLeft=4;spacingRight=4;overflow=hidden;points=[[0,0.5],[1,0.5]];portConstraint=eastwest;rotatable=0;whiteSpace=wrap;html=1;" parent="WIyWlLk6GJQsqaUBKTNV-1" vertex="1">
          <mxGeometry x="540" y="190" width="80" height="30" as="geometry" />
        </mxCell>
        <mxCell id="SnfXJmrbi_InZHLPA7sB-24" value="1.1" style="text;strokeColor=none;fillColor=none;align=left;verticalAlign=middle;spacingLeft=4;spacingRight=4;overflow=hidden;points=[[0,0.5],[1,0.5]];portConstraint=eastwest;rotatable=0;whiteSpace=wrap;html=1;" parent="WIyWlLk6GJQsqaUBKTNV-1" vertex="1">
          <mxGeometry x="580" y="210" width="80" height="30" as="geometry" />
        </mxCell>
        <mxCell id="SnfXJmrbi_InZHLPA7sB-25" value="" style="endArrow=none;html=1;rounded=0;fontSize=12;startSize=8;endSize=8;curved=1;" parent="WIyWlLk6GJQsqaUBKTNV-1" edge="1">
          <mxGeometry width="50" height="50" relative="1" as="geometry">
            <mxPoint x="641" y="410" as="sourcePoint" />
            <mxPoint x="641" y="360" as="targetPoint" />
          </mxGeometry>
        </mxCell>
        <mxCell id="SnfXJmrbi_InZHLPA7sB-26" value="" style="endArrow=none;html=1;rounded=0;fontSize=12;startSize=8;endSize=8;curved=1;" parent="WIyWlLk6GJQsqaUBKTNV-1" edge="1">
          <mxGeometry width="50" height="50" relative="1" as="geometry">
            <mxPoint x="390" y="410" as="sourcePoint" />
            <mxPoint x="640" y="410" as="targetPoint" />
          </mxGeometry>
        </mxCell>
        <mxCell id="SnfXJmrbi_InZHLPA7sB-27" value="" style="endArrow=none;html=1;rounded=0;fontSize=12;startSize=8;endSize=8;curved=1;" parent="WIyWlLk6GJQsqaUBKTNV-1" edge="1">
          <mxGeometry width="50" height="50" relative="1" as="geometry">
            <mxPoint x="390" y="450" as="sourcePoint" />
            <mxPoint x="390" y="410" as="targetPoint" />
          </mxGeometry>
        </mxCell>
        <mxCell id="SnfXJmrbi_InZHLPA7sB-28" value="" style="endArrow=none;html=1;rounded=0;fontSize=12;startSize=8;endSize=8;curved=1;entryX=0.444;entryY=1.016;entryDx=0;entryDy=0;entryPerimeter=0;" parent="WIyWlLk6GJQsqaUBKTNV-1" target="SnfXJmrbi_InZHLPA7sB-12" edge="1">
          <mxGeometry width="50" height="50" relative="1" as="geometry">
            <mxPoint x="703" y="450" as="sourcePoint" />
            <mxPoint x="630" y="350" as="targetPoint" />
          </mxGeometry>
        </mxCell>
        <mxCell id="SnfXJmrbi_InZHLPA7sB-29" value="1.n" style="text;strokeColor=none;fillColor=none;align=left;verticalAlign=middle;spacingLeft=4;spacingRight=4;overflow=hidden;points=[[0,0.5],[1,0.5]];portConstraint=eastwest;rotatable=0;whiteSpace=wrap;html=1;" parent="WIyWlLk6GJQsqaUBKTNV-1" vertex="1">
          <mxGeometry x="680" y="360" width="30" height="30" as="geometry" />
        </mxCell>
        <mxCell id="SnfXJmrbi_InZHLPA7sB-31" value="1.1" style="text;strokeColor=none;fillColor=none;align=left;verticalAlign=middle;spacingLeft=4;spacingRight=4;overflow=hidden;points=[[0,0.5],[1,0.5]];portConstraint=eastwest;rotatable=0;whiteSpace=wrap;html=1;" parent="WIyWlLk6GJQsqaUBKTNV-1" vertex="1">
          <mxGeometry x="700" y="420" width="80" height="30" as="geometry" />
        </mxCell>
        <mxCell id="SnfXJmrbi_InZHLPA7sB-32" value="1.1" style="text;strokeColor=none;fillColor=none;align=left;verticalAlign=middle;spacingLeft=4;spacingRight=4;overflow=hidden;points=[[0,0.5],[1,0.5]];portConstraint=eastwest;rotatable=0;whiteSpace=wrap;html=1;" parent="WIyWlLk6GJQsqaUBKTNV-1" vertex="1">
          <mxGeometry x="390" y="420" width="30" height="30" as="geometry" />
        </mxCell>
        <mxCell id="SnfXJmrbi_InZHLPA7sB-34" value="1.n" style="text;strokeColor=none;fillColor=none;align=left;verticalAlign=middle;spacingLeft=4;spacingRight=4;overflow=hidden;points=[[0,0.5],[1,0.5]];portConstraint=eastwest;rotatable=0;whiteSpace=wrap;html=1;" parent="WIyWlLk6GJQsqaUBKTNV-1" vertex="1">
          <mxGeometry x="610" y="360" width="80" height="30" as="geometry" />
        </mxCell>
        <mxCell id="SnfXJmrbi_InZHLPA7sB-36" style="edgeStyle=none;curved=1;rounded=0;orthogonalLoop=1;jettySize=auto;html=1;exitX=0;exitY=0;exitDx=0;exitDy=0;fontSize=12;startSize=8;endSize=8;" parent="WIyWlLk6GJQsqaUBKTNV-1" source="SnfXJmrbi_InZHLPA7sB-35" target="SnfXJmrbi_InZHLPA7sB-35" edge="1">
          <mxGeometry relative="1" as="geometry" />
        </mxCell>
        <mxCell id="SnfXJmrbi_InZHLPA7sB-49" value="" style="shape=stencil(lVbLbttADPwaXQfL5T7PbvofAWLXQl07cJwm+ftwo0g11xaB3lYSR+SQM8QOvHnZPz5vB+9eLufT7+3b+HTZD/xj8H487rfn8SKngR8G3uxO5+2v8+n1+DQ9Pz+2yHb6c/rb/vA+4WJCDA3l3cf0xsG5rxc/p/jDeLyKzw5Bx3vEvB5fPEpR8SQJ/DqgLv9bEhBiMgAFQWfgiFrXAeQWijMiEopBuiZUXVPKYINEqcikAMWhBqOtBVWTqARvAJJw1BxqBhklNYrcA75z3gVwgdekKyMbGXxC6kgHs61U4KoCZA8ySBMjdYPLcAaHW0AgkAUoIA0QVkQ2aa/1zQiGXFtb9aTD7MDVucXOoN5QdxOGnoIwjrbyuiHAGfU0aXeExQtsm6fzp3jB6NAdf4aEYHBuK6Dzpzeb1JZM0qSTqe22xnSGInM0SLQ92dktIhtmaIu4AywGXAWE/wEEKUBP+qrT97UabrZSQTbsI1rOXU0ByaiJ4vx56atsJWsQYC2Npl/Dnwyn3ZPE4UZBYi49BWmztelvpRrgDF14cGcGPy/B+zqC125rdjbqoTDLchkyIRuEW4f0BGQfGQUxzyt67cIgh3+3jd14OEyXlevv/e1EXk03G374BA==);lineShape=1;strokeColor=default;" parent="WIyWlLk6GJQsqaUBKTNV-1" vertex="1">
          <mxGeometry x="1082.9918952567014" y="402.4041111717486" width="12.283619633787737" height="10.880388644069114" as="geometry" />
        </mxCell>
      </root>
    </mxGraphModel>
  </diagram>
</mxfile>
